HIERARCHY
ROOT Hips
{
	OFFSET 0.000000 0.000000 0.000000
	CHANNELS 6 Xposition Yposition Zposition Zrotation Yrotation Xrotation 
	JOINT LHipJoint
	{
		OFFSET 0.000000 0.000000 0.000000
		CHANNELS 3 Zrotation Yrotation Xrotation
		JOINT LeftUpLeg
		{
			OFFSET 1.363060 -1.794630 0.839290
			CHANNELS 3 Zrotation Yrotation Xrotation
			JOINT LeftLeg
			{
				OFFSET 2.448110 -6.726130 0.000000
				CHANNELS 3 Zrotation Yrotation Xrotation
				JOINT LeftFoot
				{
					OFFSET 2.562200 -7.039590 0.000000
					CHANNELS 3 Zrotation Yrotation Xrotation
					JOINT LeftToeBase
					{
						OFFSET 0.157640 -0.433110 2.322550
						CHANNELS 3 Zrotation Yrotation Xrotation
						End Site
						{
							OFFSET 0.000000 0.000000 0.000000
						}
					}
				}
			}
		}
	}
	JOINT RHipJoint
	{
		OFFSET 0.000000 0.000000 0.000000
		CHANNELS 3 Zrotation Yrotation Xrotation
		JOINT RightUpLeg
		{
			OFFSET -1.305520 -1.794630 0.839290
			CHANNELS 3 Zrotation Yrotation Xrotation
			JOINT RightLeg
			{
				OFFSET -2.542530 -6.985550 0.000000
				CHANNELS 3 Zrotation Yrotation Xrotation
				JOINT RightFoot
				{
					OFFSET -2.568260 -7.056230 0.000000
					CHANNELS 3 Zrotation Yrotation Xrotation
					JOINT RightToeBase
					{
						OFFSET -0.164730 -0.452590 2.363150
						CHANNELS 3 Zrotation Yrotation Xrotation
						End Site
						{
							OFFSET 0.000000 0.000000 0.000000
						}
					}
				}
			}
		}
	}
	JOINT LowerBack
	{
		OFFSET 0.000000 0.000000 0.000000
		CHANNELS 3 Zrotation Yrotation Xrotation
		JOINT Spine
		{
			OFFSET 0.028270 2.035590 -0.193380
			CHANNELS 3 Zrotation Yrotation Xrotation
			JOINT Spine1
			{
				OFFSET 0.056720 2.048850 -0.042750
				CHANNELS 3 Zrotation Yrotation Xrotation
				JOINT Neck
				{
					OFFSET 0.000000 0.000000 0.000000
					CHANNELS 3 Zrotation Yrotation Xrotation
					JOINT Neck1
					{
						OFFSET -0.054170 1.746240 0.172020
						CHANNELS 3 Zrotation Yrotation Xrotation
						JOINT Head
						{
							OFFSET 0.104070 1.761360 -0.123970
							CHANNELS 3 Zrotation Yrotation Xrotation
							End Site
							{
								OFFSET 0.000000 0.000000 0.000000
							}
						}
					}
				}
				JOINT LeftShoulder
				{
					OFFSET 0.000000 0.000000 0.000000
					CHANNELS 3 Zrotation Yrotation Xrotation
					JOINT LeftArm
					{
						OFFSET 3.362410 1.200890 -0.311210
						CHANNELS 3 Zrotation Yrotation Xrotation
						JOINT LeftForeArm
						{
							OFFSET 4.983000 -0.000000 -0.000000
							CHANNELS 3 Zrotation Yrotation Xrotation
							JOINT LeftHand
							{
								OFFSET 3.483560 -0.000000 -0.000000
								CHANNELS 3 Zrotation Yrotation Xrotation
								JOINT LeftFingerBase
								{
									OFFSET 0.000000 0.000000 0.000000
									CHANNELS 3 Zrotation Yrotation Xrotation
									JOINT LeftHandIndex1
									{
										OFFSET 0.715260 -0.000000 -0.000000
										CHANNELS 3 Zrotation Yrotation Xrotation
										End Site
										{
											OFFSET 0.000000 0.000000 0.000000
										}
									}
								}
								JOINT LThumb
								{
									OFFSET 0.000000 0.000000 0.000000
									CHANNELS 3 Zrotation Yrotation Xrotation
									End Site
									{
										OFFSET 0.000000 0.000000 0.000000
									}
								}
							}
						}
					}
				}
				JOINT RightShoulder
				{
					OFFSET 0.000000 0.000000 0.000000
					CHANNELS 3 Zrotation Yrotation Xrotation
					JOINT RightArm
					{
						OFFSET -3.136600 1.374050 -0.404650
						CHANNELS 3 Zrotation Yrotation Xrotation
						JOINT RightForeArm
						{
							OFFSET -5.241900 -0.000000 -0.000000
							CHANNELS 3 Zrotation Yrotation Xrotation
							JOINT RightHand
							{
								OFFSET -3.444170 -0.000000 -0.000000
								CHANNELS 3 Zrotation Yrotation Xrotation
								JOINT RightFingerBase
								{
									OFFSET 0.000000 0.000000 0.000000
									CHANNELS 3 Zrotation Yrotation Xrotation
									JOINT RightHandIndex1
									{
										OFFSET -0.622530 -0.000000 -0.000000
										CHANNELS 3 Zrotation Yrotation Xrotation
										End Site
										{
											OFFSET 0.000000 0.000000 0.000000
										}
									}
								}
								JOINT RThumb
								{
									OFFSET 0.000000 0.000000 0.000000
									CHANNELS 3 Zrotation Yrotation Xrotation
									End Site
									{
										OFFSET 0.000000 0.000000 0.000000
									}
								}
							}
						}
					}
				}
			}
		}
	}
}
MOTION
Frames: 12
Frame Time: 0.008333
12.291911 17.695283 -2.851879 -2.762823 -60.395750 29.029017 2.689961 -3.775936 -2.547307 -18.084098 -2.519523 -46.790324 0.349220 11.727196 28.183640 0.821924 0.051366 5.347634 0.005900 0.496600 1.364700 -4.183854 3.828535 -2.912865 19.670245 4.123116 -53.238359 -2.133265 -15.509454 36.649581 1.906729 -9.367531 -0.263816 -0.468500 -4.389900 12.176400 7.357965 -1.192175 33.022325 1.260893 1.386069 -2.411418 -3.899729 0.445781 -11.885466 3.009537 10.669806 -5.159675 -10.508835 15.226794 -7.157058 -10.638800 5.055600 -2.598900 1.727502 -7.680864 1.261623 -75.795241 -30.186354 4.722938 61.536309 -48.630322 -46.208471 -1.482311 -0.273239 4.328633 42.544281 -9.926820 -8.803700 -7.125000 0.000000 0.000000 11.884400 17.413300 -7.957100 4.155067 7.366511 2.023489 52.319025 41.138831 1.575575 -41.419458 38.507275 -25.517614 2.165339 -2.080200 16.059436 -54.800000 3.516034 -8.678900 7.125000 0.000000 0.000000 -21.648000 -19.940600 -13.990200 
12.295504 17.689730 -2.859283 -2.615241 -60.303366 28.989928 2.707794 -3.780161 -2.554896 -18.114836 -2.634635 -46.923647 0.353618 11.755308 28.227353 0.827949 0.028499 5.361810 0.005900 0.497800 1.367900 -4.212580 3.824278 -2.921519 19.615302 4.121150 -53.411475 -2.167035 -15.549988 36.768829 1.912721 -9.380735 -0.358072 -0.468700 -4.391300 12.180100 7.438323 -1.191176 33.135681 1.263395 1.425070 -2.399374 -3.915806 0.463106 -11.860032 2.957857 10.613178 -5.179057 -10.536315 15.148426 -7.164664 -10.650600 5.020500 -2.617700 1.746296 -7.676144 1.248522 -76.119518 -30.150789 5.136897 61.543592 -48.673149 -46.144653 -1.481302 -0.247440 4.420309 42.760379 -10.045461 -9.003800 -7.125000 0.000000 0.000000 12.001100 17.181500 -8.101200 4.147257 7.370683 2.034401 52.185370 41.392675 1.518734 -41.335431 38.406102 -25.440177 2.167123 -2.103407 16.130683 -55.019856 3.566908 -8.886500 7.125000 0.000000 0.000000 -21.763200 -19.737800 -14.185200 
12.299097 17.684177 -2.866577 -2.455945 -60.208824 28.938115 2.725026 -3.784399 -2.561930 -18.163470 -2.731134 -47.059413 0.356415 11.780603 28.266994 0.839588 -0.017353 5.388709 0.006000 0.499900 1.373700 -4.240949 3.819120 -2.930016 19.557532 4.108712 -53.586488 -2.201875 -15.589906 36.889921 1.918666 -9.393662 -0.446116 -0.467900 -4.387200 12.168500 7.519203 -1.194575 33.251602 1.265268 1.458422 -2.388105 -3.933942 0.477661 -11.839811 2.898948 10.557406 -5.193630 -10.561006 15.069203 -7.177741 -10.657300 4.985900 -2.642300 1.762877 -7.671612 1.235024 -76.440029 -30.095814 5.544319 61.573097 -48.724780 -46.105648 -1.480198 -0.223564 4.509014 42.968293 -10.170605 -9.207400 -7.125000 0.000000 0.000000 12.110600 16.944300 -8.242900 4.137668 7.374276 2.044989 52.061812 41.634549 1.485190 -41.264862 38.315508 -25.374982 2.169290 -2.125607 16.195506 -55.258634 3.622709 -9.110700 7.125000 0.000000 0.000000 -21.887700 -19.520400 -14.396500 
12.302363 17.678625 -2.873763 -2.289339 -60.117463 28.875592 2.741777 -3.788294 -2.568338 -18.229343 -2.802627 -47.198076 0.358185 11.803497 28.305159 0.857760 -0.089699 5.429787 0.006100 0.504000 1.384900 -4.268488 3.813320 -2.937691 19.497105 4.092641 -53.759093 -2.237249 -15.629504 37.011659 1.924460 -9.406056 -0.529057 -0.466400 -4.380600 12.149900 7.593736 -1.198504 33.372404 1.266056 1.489249 -2.378119 -3.952463 0.491016 -11.827472 2.832652 10.502191 -5.202869 -10.582095 14.988017 -7.194118 -10.658100 4.952000 -2.671200 1.777312 -7.665309 1.218742 -76.751678 -29.984975 5.964004 61.661291 -48.801282 -46.128314 -1.479574 -0.204114 4.577235 43.175738 -10.292989 -9.405900 -7.125000 0.000000 0.000000 12.220900 16.716200 -8.383900 4.125226 7.374741 2.058121 51.980672 41.871788 1.464864 -41.226812 38.242941 -25.336588 2.167671 -2.147050 16.274140 -55.489822 3.706633 -9.375500 7.125000 0.000000 0.000000 -21.995100 -19.258300 -14.620300 
12.305412 17.673072 -2.880840 -2.132632 -60.031450 28.818380 2.758593 -3.791650 -2.574730 -18.300780 -2.849473 -47.339812 0.359803 11.824806 28.344985 0.882461 -0.189774 5.484574 0.006600 0.526100 1.445700 -4.294870 3.807432 -2.943976 19.436719 4.084079 -53.924703 -2.271979 -15.669069 37.131913 1.929476 -9.416383 -0.612283 -0.466100 -4.378800 12.145000 7.670064 -1.200836 33.497388 1.265697 1.523275 -2.369246 -3.977880 0.505415 -11.824289 2.765724 10.445562 -5.202467 -10.603959 14.902583 -7.213947 -10.658800 4.917000 -2.705300 1.790140 -7.660044 1.201872 -77.057404 -29.868238 6.371718 61.743913 -48.875164 -46.146245 -1.478442 -0.184140 4.648888 43.375331 -10.436598 -9.624300 -7.125000 0.000000 0.000000 12.320600 16.459500 -8.526200 4.112161 7.375400 2.072101 51.911330 42.102324 1.448728 -41.195139 38.173841 -25.303061 2.163838 -2.168423 16.355005 -55.695352 3.802099 -9.651000 7.125000 0.000000 0.000000 -22.080800 -18.982600 -14.835700 
12.308025 17.667519 -2.887808 -1.987784 -59.953486 28.769992 2.775861 -3.794358 -2.581018 -18.373061 -2.876815 -47.485697 0.362073 11.845700 28.388841 0.912517 -0.312429 5.548942 0.007800 0.570800 1.568400 -4.320115 3.801725 -2.948829 19.377692 4.084768 -54.084159 -2.305317 -15.708114 37.248638 1.932263 -9.420605 -0.694036 -0.467800 -4.386700 12.167200 7.746308 -1.198399 33.624756 1.264050 1.563904 -2.361754 -4.009852 0.522532 -11.829310 2.695462 10.387142 -5.200234 -10.626143 14.813850 -7.230327 -10.657600 4.881900 -2.737400 1.800997 -7.656670 1.183980 -77.351061 -29.754042 6.771041 61.803839 -48.939782 -46.141054 -1.476909 -0.162907 4.727940 43.576616 -10.585586 -9.852000 -7.125000 0.000000 0.000000 12.419100 16.192000 -8.671700 4.099698 7.378353 2.085493 51.840409 42.323504 1.428848 -41.156474 38.100381 -25.262715 2.158504 -2.189889 16.436785 -55.859230 3.894413 -9.907800 7.125000 0.000000 0.000000 -22.140700 -18.723100 -15.023200 
12.310420 17.661858 -2.894667 -1.858024 -59.877712 28.735421 2.793900 -3.796473 -2.587482 -18.442721 -2.891296 -47.637231 0.365149 11.867205 28.437591 0.946124 -0.451675 5.619606 0.009400 0.625800 1.719600 -4.344478 3.796301 -2.952886 19.325141 4.088562 -54.240259 -2.337054 -15.745995 37.361315 1.932387 -9.417043 -0.774039 -0.471300 -4.403000 12.213400 7.829517 -1.193701 33.751824 1.261864 1.610297 -2.355037 -4.048315 0.541832 -11.838867 2.624811 10.328108 -5.196494 -10.653437 14.725148 -7.244677 -10.658400 4.847300 -2.767400 1.810644 -7.654504 1.165369 -77.632380 -29.633484 7.173229 61.858374 -49.002588 -46.130114 -1.474855 -0.141860 4.810336 43.771080 -10.729205 -10.074300 -7.125000 0.000000 0.000000 12.513100 15.931700 -8.813000 4.088588 7.383503 2.098364 51.759443 42.540653 1.402055 -41.102260 38.016856 -25.208086 2.153154 -2.211433 16.524337 -55.983099 3.960239 -10.109200 7.125000 0.000000 0.000000 -22.185300 -18.519900 -15.168500 
12.312924 17.656414 -2.901309 -1.758147 -59.797588 28.727062 2.812536 -3.798058 -2.594351 -18.496877 -2.902982 -47.788997 0.368920 11.888668 28.487560 0.980494 -0.594154 5.693058 0.011300 0.686200 1.885700 -4.367977 3.791356 -2.956340 19.289737 4.090406 -54.396919 -2.367572 -15.782976 37.471141 1.931604 -9.410983 -0.848942 -0.474700 -4.418900 12.258200 7.934154 -1.190968 33.877981 1.259718 1.662424 -2.348811 -4.097529 0.562412 -11.849553 2.557134 10.268311 -5.197372 -10.687474 14.637911 -7.253127 -10.662800 4.813700 -2.790200 1.819522 -7.653902 1.146447 -77.899608 -29.525126 7.576370 61.880281 -49.052780 -46.084481 -1.472628 -0.119573 4.894288 43.975050 -10.858608 -10.290200 -7.125000 0.000000 0.000000 12.615100 15.684600 -8.957700 4.079733 7.391948 2.109551 51.659086 42.752015 1.367313 -41.028786 37.922047 -25.137454 2.148079 -2.233731 16.612974 -56.081048 4.010410 -10.278500 7.125000 0.000000 0.000000 -22.219500 -18.349000 -15.288400 
12.315319 17.651079 -2.907841 -1.670498 -59.717873 28.731083 2.831209 -3.799596 -2.601551 -18.543950 -2.915664 -47.940212 0.372655 11.909245 28.535227 1.012448 -0.727590 5.764075 0.013000 0.737100 2.025600 -4.391314 3.786679 -2.959461 19.258993 4.096162 -54.554793 -2.397495 -15.819974 37.579954 1.930726 -9.404837 -0.923903 -0.478000 -4.433800 12.300300 8.045703 -1.186485 34.000448 1.257386 1.719150 -2.342582 -4.152923 0.584747 -11.859392 2.496951 10.210023 -5.198260 -10.729310 14.555952 -7.257086 -10.673500 4.782000 -2.807200 1.828269 -7.652774 1.126976 -78.152838 -29.399582 7.997538 61.912729 -49.108371 -46.048574 -1.470063 -0.098949 4.963429 44.169343 -10.972021 -10.488300 -7.125000 0.000000 0.000000 12.713500 15.461500 -9.094000 4.072764 7.401495 2.120265 51.551018 42.957800 1.325916 -40.944660 37.821298 -25.057582 2.142142 -2.256524 16.701542 -56.149398 4.058383 -10.433000 7.125000 0.000000 0.000000 -22.236000 -18.190500 -15.387400 
12.317388 17.645744 -2.914265 -1.569468 -59.641696 28.726492 2.849288 -3.801610 -2.608226 -18.594981 -2.937935 -48.088631 0.375494 11.928810 28.577270 1.040446 -0.844354 5.830246 0.014400 0.775300 2.130800 -4.414942 3.781660 -2.962571 19.218907 4.103544 -54.715793 -2.427920 -15.857215 37.689110 1.930145 -9.400104 -0.997710 -0.481400 -4.449500 12.344800 8.150596 -1.180228 34.117763 1.254385 1.775156 -2.336751 -4.210310 0.607208 -11.869065 2.442046 10.154977 -5.200636 -10.775475 14.481547 -7.254916 -10.687600 4.753700 -2.817000 1.836363 -7.649988 1.105925 -78.393737 -29.229241 8.444394 61.991236 -49.183866 -46.058587 -1.467474 -0.082268 5.009205 44.349915 -11.064594 -10.659300 -7.125000 0.000000 0.000000 12.807400 15.273500 -9.217900 4.066670 7.411237 2.130822 51.445097 43.155733 1.289204 -40.856628 37.719783 -24.973938 2.137078 -2.278362 16.795988 -56.202621 4.078710 -10.536100 7.125000 0.000000 0.000000 -22.254000 -18.086100 -15.458400 
12.319348 17.640518 -2.920797 -1.441226 -59.574997 28.699188 2.866104 -3.804429 -2.614161 -18.656488 -2.972271 -48.230082 0.376966 11.947010 28.612248 1.062656 -0.937177 5.886912 0.015300 0.799600 2.197500 -4.438955 3.776042 -2.965827 19.157772 4.117617 -54.876044 -2.459236 -15.895195 37.799142 1.931136 -9.400510 -1.073218 -0.484800 -4.464900 12.388500 8.236669 -1.170794 34.231532 1.250356 1.827499 -2.330801 -4.265732 0.629019 -11.876128 2.388383 10.104609 -5.205806 -10.821272 14.415830 -7.247605 -10.700900 4.729600 -2.820900 1.843320 -7.645234 1.084262 -78.620667 -29.027724 8.903784 62.104078 -49.273191 -46.103776 -1.464462 -0.068157 5.034746 44.509612 -11.160833 -10.825100 -7.125000 0.000000 0.000000 12.886700 15.087800 -9.330800 4.060245 7.420534 2.141169 51.345825 43.345733 1.267671 -40.774838 37.624174 -24.894667 2.131056 -2.299601 16.884169 -56.241774 4.105476 -10.642000 7.125000 0.000000 0.000000 -22.260800 -17.976900 -15.522900 
12.321198 17.635401 -2.927330 -1.294797 -59.514753 28.652741 2.881522 -3.807972 -2.619386 -18.721450 -3.020869 -48.359445 0.377631 11.963934 28.640989 1.078796 -1.004318 5.934238 0.015800 0.810400 2.227200 -4.462638 3.769805 -2.969156 19.083563 4.133413 -55.032581 -2.491155 -15.933316 37.909372 1.933827 -9.406599 -1.146988 -0.487500 -4.476800 12.422200 8.311181 -1.160811 34.347331 1.245198 1.875858 -2.324586 -4.322748 0.649704 -11.882371 2.336433 10.058827 -5.208998 -10.866874 14.357928 -7.240161 -10.713600 4.709400 -2.824000 1.848438 -7.638897 1.062557 -78.830949 -28.797795 9.369577 62.248642 -49.374682 -46.182193 -1.460494 -0.056068 5.049195 44.638077 -11.274401 -10.995300 -7.125000 0.000000 0.000000 12.941300 14.888000 -9.429500 4.053162 7.429163 2.152123 51.254267 43.529749 1.256805 -40.697421 37.532845 -24.818641 2.123284 -2.321051 16.962704 -56.268324 4.155450 -10.779300 7.125000 0.000000 0.000000 -22.250700 -17.831600 -15.592800 
